<mxfile host="Electron" agent="Mozilla/5.0 (Windows NT 10.0; Win64; x64) AppleWebKit/537.36 (KHTML, like Gecko) draw.io/28.0.6 Chrome/138.0.7204.100 Electron/37.2.3 Safari/537.36" version="28.0.6">
  <diagram name="Page-1" id="E-5t9pThX8K7YHl_Ke6q">
    <mxGraphModel dx="1209" dy="1597" grid="0" gridSize="10" guides="1" tooltips="1" connect="1" arrows="1" fold="1" page="1" pageScale="1" pageWidth="850" pageHeight="1100" math="0" shadow="0">
      <root>
        <mxCell id="0" />
        <mxCell id="1" parent="0" />
        <mxCell id="Uk9GfLsoAb0SeuHJn7hZ-63" value="" style="whiteSpace=wrap;html=1;rounded=0;fillColor=#dae8fc;strokeColor=#6c8ebf;" parent="1" vertex="1">
          <mxGeometry x="630" y="30" width="170" height="30" as="geometry" />
        </mxCell>
        <mxCell id="Uk9GfLsoAb0SeuHJn7hZ-64" value="" style="whiteSpace=wrap;html=1;rounded=0;fillColor=#dae8fc;strokeColor=#6c8ebf;" parent="1" vertex="1">
          <mxGeometry x="630" y="60" width="170" height="30" as="geometry" />
        </mxCell>
        <mxCell id="Uk9GfLsoAb0SeuHJn7hZ-65" value="" style="whiteSpace=wrap;html=1;rounded=0;fillColor=#dae8fc;strokeColor=#6c8ebf;" parent="1" vertex="1">
          <mxGeometry x="630" y="90" width="170" height="30" as="geometry" />
        </mxCell>
        <mxCell id="Uk9GfLsoAb0SeuHJn7hZ-66" value="" style="whiteSpace=wrap;html=1;rounded=0;fillColor=#dae8fc;strokeColor=#6c8ebf;" parent="1" vertex="1">
          <mxGeometry x="630" y="120" width="170" height="30" as="geometry" />
        </mxCell>
        <mxCell id="Uk9GfLsoAb0SeuHJn7hZ-67" value="" style="whiteSpace=wrap;html=1;rounded=0;fillColor=#dae8fc;strokeColor=#6c8ebf;" parent="1" vertex="1">
          <mxGeometry x="630" y="150" width="170" height="30" as="geometry" />
        </mxCell>
        <mxCell id="Uk9GfLsoAb0SeuHJn7hZ-68" value="" style="whiteSpace=wrap;html=1;rounded=0;fillColor=#dae8fc;strokeColor=#6c8ebf;" parent="1" vertex="1">
          <mxGeometry x="630" y="30" width="170" height="30" as="geometry" />
        </mxCell>
        <mxCell id="Uk9GfLsoAb0SeuHJn7hZ-69" value="" style="whiteSpace=wrap;html=1;rounded=0;fillColor=#dae8fc;strokeColor=#6c8ebf;" parent="1" vertex="1">
          <mxGeometry x="630" y="60" width="170" height="30" as="geometry" />
        </mxCell>
        <mxCell id="Uk9GfLsoAb0SeuHJn7hZ-60" value="" style="whiteSpace=wrap;html=1;rounded=0;fillColor=#dae8fc;strokeColor=#6c8ebf;" parent="1" vertex="1">
          <mxGeometry x="20" y="-10" width="170" height="30" as="geometry" />
        </mxCell>
        <mxCell id="Uk9GfLsoAb0SeuHJn7hZ-61" value="" style="whiteSpace=wrap;html=1;rounded=0;fillColor=#dae8fc;strokeColor=#6c8ebf;" parent="1" vertex="1">
          <mxGeometry x="20" y="20" width="170" height="30" as="geometry" />
        </mxCell>
        <mxCell id="Uk9GfLsoAb0SeuHJn7hZ-62" value="" style="whiteSpace=wrap;html=1;rounded=0;fillColor=#dae8fc;strokeColor=#6c8ebf;" parent="1" vertex="1">
          <mxGeometry x="20" y="50" width="170" height="30" as="geometry" />
        </mxCell>
        <mxCell id="Uk9GfLsoAb0SeuHJn7hZ-56" value="" style="whiteSpace=wrap;html=1;rounded=0;fillColor=#dae8fc;strokeColor=#6c8ebf;" parent="1" vertex="1">
          <mxGeometry x="20" y="290" width="170" height="30" as="geometry" />
        </mxCell>
        <mxCell id="Uk9GfLsoAb0SeuHJn7hZ-57" value="" style="whiteSpace=wrap;html=1;rounded=0;fillColor=#dae8fc;strokeColor=#6c8ebf;" parent="1" vertex="1">
          <mxGeometry x="20" y="320" width="170" height="30" as="geometry" />
        </mxCell>
        <mxCell id="Uk9GfLsoAb0SeuHJn7hZ-58" value="" style="whiteSpace=wrap;html=1;rounded=0;fillColor=#dae8fc;strokeColor=#6c8ebf;" parent="1" vertex="1">
          <mxGeometry x="20" y="350" width="170" height="30" as="geometry" />
        </mxCell>
        <mxCell id="Uk9GfLsoAb0SeuHJn7hZ-59" value="" style="whiteSpace=wrap;html=1;rounded=0;fillColor=#dae8fc;strokeColor=#6c8ebf;" parent="1" vertex="1">
          <mxGeometry x="20" y="380" width="170" height="30" as="geometry" />
        </mxCell>
        <mxCell id="Uk9GfLsoAb0SeuHJn7hZ-54" value="" style="whiteSpace=wrap;html=1;rounded=0;fillColor=#dae8fc;strokeColor=#6c8ebf;" parent="1" vertex="1">
          <mxGeometry x="20" y="260" width="170" height="30" as="geometry" />
        </mxCell>
        <mxCell id="Uk9GfLsoAb0SeuHJn7hZ-3" value="&lt;b&gt;On-Board Computer&lt;/b&gt;" style="swimlane;fontStyle=0;childLayout=stackLayout;horizontal=1;startSize=30;horizontalStack=0;resizeParent=1;resizeParentMax=0;resizeLast=0;collapsible=1;marginBottom=0;whiteSpace=wrap;html=1;fillColor=#dae8fc;strokeColor=#6c8ebf;" parent="1" vertex="1">
          <mxGeometry x="20" y="-130" width="170" height="120" as="geometry" />
        </mxCell>
        <mxCell id="Uk9GfLsoAb0SeuHJn7hZ-4" value="data reception" style="text;strokeColor=#6c8ebf;fillColor=#dae8fc;align=left;verticalAlign=middle;spacingLeft=4;spacingRight=4;overflow=hidden;points=[[0,0.5],[1,0.5]];portConstraint=eastwest;rotatable=0;whiteSpace=wrap;html=1;" parent="Uk9GfLsoAb0SeuHJn7hZ-3" vertex="1">
          <mxGeometry y="30" width="170" height="30" as="geometry" />
        </mxCell>
        <mxCell id="Uk9GfLsoAb0SeuHJn7hZ-5" value="data storage" style="text;strokeColor=#6c8ebf;fillColor=#dae8fc;align=left;verticalAlign=middle;spacingLeft=4;spacingRight=4;overflow=hidden;points=[[0,0.5],[1,0.5]];portConstraint=eastwest;rotatable=0;whiteSpace=wrap;html=1;" parent="Uk9GfLsoAb0SeuHJn7hZ-3" vertex="1">
          <mxGeometry y="60" width="170" height="30" as="geometry" />
        </mxCell>
        <mxCell id="Uk9GfLsoAb0SeuHJn7hZ-6" value="data cleanup and filtering" style="text;strokeColor=#6c8ebf;fillColor=#dae8fc;align=left;verticalAlign=middle;spacingLeft=4;spacingRight=4;overflow=hidden;points=[[0,0.5],[1,0.5]];portConstraint=eastwest;rotatable=0;whiteSpace=wrap;html=1;" parent="Uk9GfLsoAb0SeuHJn7hZ-3" vertex="1">
          <mxGeometry y="90" width="170" height="30" as="geometry" />
        </mxCell>
        <mxCell id="Uk9GfLsoAb0SeuHJn7hZ-46" style="edgeStyle=orthogonalEdgeStyle;rounded=0;orthogonalLoop=1;jettySize=auto;html=1;entryX=1;entryY=0.5;entryDx=0;entryDy=0;" parent="1" source="Uk9GfLsoAb0SeuHJn7hZ-7" target="Uk9GfLsoAb0SeuHJn7hZ-4" edge="1">
          <mxGeometry relative="1" as="geometry" />
        </mxCell>
        <mxCell id="Uk9GfLsoAb0SeuHJn7hZ-47" style="edgeStyle=orthogonalEdgeStyle;rounded=0;orthogonalLoop=1;jettySize=auto;html=1;" parent="1" source="Uk9GfLsoAb0SeuHJn7hZ-7" target="Uk9GfLsoAb0SeuHJn7hZ-9" edge="1">
          <mxGeometry relative="1" as="geometry" />
        </mxCell>
        <mxCell id="Uk9GfLsoAb0SeuHJn7hZ-48" style="edgeStyle=orthogonalEdgeStyle;rounded=0;orthogonalLoop=1;jettySize=auto;html=1;entryX=0.994;entryY=0.815;entryDx=0;entryDy=0;entryPerimeter=0;" parent="1" source="Uk9GfLsoAb0SeuHJn7hZ-7" target="Uk9GfLsoAb0SeuHJn7hZ-13" edge="1">
          <mxGeometry relative="1" as="geometry" />
        </mxCell>
        <mxCell id="Uk9GfLsoAb0SeuHJn7hZ-49" style="edgeStyle=orthogonalEdgeStyle;rounded=0;orthogonalLoop=1;jettySize=auto;html=1;entryX=0;entryY=0.25;entryDx=0;entryDy=0;" parent="1" source="Uk9GfLsoAb0SeuHJn7hZ-7" target="Uk9GfLsoAb0SeuHJn7hZ-16" edge="1">
          <mxGeometry relative="1" as="geometry" />
        </mxCell>
        <mxCell id="RITMG11qi4v3MnlWOQNE-2" style="edgeStyle=orthogonalEdgeStyle;rounded=0;orthogonalLoop=1;jettySize=auto;html=1;entryX=0.5;entryY=0;entryDx=0;entryDy=0;" edge="1" parent="1" source="Uk9GfLsoAb0SeuHJn7hZ-7" target="Uk9GfLsoAb0SeuHJn7hZ-29">
          <mxGeometry relative="1" as="geometry">
            <Array as="points">
              <mxPoint x="445" y="550" />
              <mxPoint x="445" y="550" />
            </Array>
          </mxGeometry>
        </mxCell>
        <mxCell id="Uk9GfLsoAb0SeuHJn7hZ-7" value="&lt;b&gt;Cubesat&lt;/b&gt;" style="rounded=1;whiteSpace=wrap;html=1;fillColor=#fff2cc;strokeColor=#d6b656;" parent="1" vertex="1">
          <mxGeometry x="295" y="-20" width="220" height="520" as="geometry" />
        </mxCell>
        <mxCell id="Uk9GfLsoAb0SeuHJn7hZ-8" value="&lt;b&gt;Electrical Power Supply&lt;/b&gt;" style="swimlane;fontStyle=0;childLayout=stackLayout;horizontal=1;startSize=30;horizontalStack=0;resizeParent=1;resizeParentMax=0;resizeLast=0;collapsible=1;marginBottom=0;whiteSpace=wrap;html=1;fillColor=#dae8fc;strokeColor=#6c8ebf;" parent="1" vertex="1">
          <mxGeometry x="20" y="140" width="170" height="120" as="geometry" />
        </mxCell>
        <mxCell id="Uk9GfLsoAb0SeuHJn7hZ-9" value="3.3V supply" style="text;strokeColor=#6c8ebf;fillColor=#dae8fc;align=left;verticalAlign=middle;spacingLeft=4;spacingRight=4;overflow=hidden;points=[[0,0.5],[1,0.5]];portConstraint=eastwest;rotatable=0;whiteSpace=wrap;html=1;" parent="Uk9GfLsoAb0SeuHJn7hZ-8" vertex="1">
          <mxGeometry y="30" width="170" height="30" as="geometry" />
        </mxCell>
        <mxCell id="Uk9GfLsoAb0SeuHJn7hZ-10" value="5V supply" style="text;strokeColor=#6c8ebf;fillColor=#dae8fc;align=left;verticalAlign=middle;spacingLeft=4;spacingRight=4;overflow=hidden;points=[[0,0.5],[1,0.5]];portConstraint=eastwest;rotatable=0;whiteSpace=wrap;html=1;" parent="Uk9GfLsoAb0SeuHJn7hZ-8" vertex="1">
          <mxGeometry y="60" width="170" height="30" as="geometry" />
        </mxCell>
        <mxCell id="Uk9GfLsoAb0SeuHJn7hZ-11" value="solar array" style="text;strokeColor=#6c8ebf;fillColor=#dae8fc;align=left;verticalAlign=middle;spacingLeft=4;spacingRight=4;overflow=hidden;points=[[0,0.5],[1,0.5]];portConstraint=eastwest;rotatable=0;whiteSpace=wrap;html=1;" parent="Uk9GfLsoAb0SeuHJn7hZ-8" vertex="1">
          <mxGeometry y="90" width="170" height="30" as="geometry" />
        </mxCell>
        <mxCell id="Uk9GfLsoAb0SeuHJn7hZ-12" value="Command and data handling" style="swimlane;fontStyle=0;childLayout=stackLayout;horizontal=1;startSize=30;horizontalStack=0;resizeParent=1;resizeParentMax=0;resizeLast=0;collapsible=1;marginBottom=0;whiteSpace=wrap;html=1;fillColor=#dae8fc;strokeColor=#6c8ebf;" parent="1" vertex="1">
          <mxGeometry x="20" y="500" width="170" height="120" as="geometry" />
        </mxCell>
        <mxCell id="Uk9GfLsoAb0SeuHJn7hZ-13" value="command parser" style="text;strokeColor=#6c8ebf;fillColor=#dae8fc;align=left;verticalAlign=middle;spacingLeft=4;spacingRight=4;overflow=hidden;points=[[0,0.5],[1,0.5]];portConstraint=eastwest;rotatable=0;whiteSpace=wrap;html=1;" parent="Uk9GfLsoAb0SeuHJn7hZ-12" vertex="1">
          <mxGeometry y="30" width="170" height="30" as="geometry" />
        </mxCell>
        <mxCell id="Uk9GfLsoAb0SeuHJn7hZ-14" value="memory buffers" style="text;strokeColor=#6c8ebf;fillColor=#dae8fc;align=left;verticalAlign=middle;spacingLeft=4;spacingRight=4;overflow=hidden;points=[[0,0.5],[1,0.5]];portConstraint=eastwest;rotatable=0;whiteSpace=wrap;html=1;" parent="Uk9GfLsoAb0SeuHJn7hZ-12" vertex="1">
          <mxGeometry y="60" width="170" height="30" as="geometry" />
        </mxCell>
        <mxCell id="Uk9GfLsoAb0SeuHJn7hZ-15" value="Item 3" style="text;strokeColor=#6c8ebf;fillColor=#dae8fc;align=left;verticalAlign=middle;spacingLeft=4;spacingRight=4;overflow=hidden;points=[[0,0.5],[1,0.5]];portConstraint=eastwest;rotatable=0;whiteSpace=wrap;html=1;" parent="Uk9GfLsoAb0SeuHJn7hZ-12" vertex="1">
          <mxGeometry y="90" width="170" height="30" as="geometry" />
        </mxCell>
        <mxCell id="Uk9GfLsoAb0SeuHJn7hZ-16" value="&lt;b&gt;Sensors&lt;/b&gt;" style="swimlane;fontStyle=0;childLayout=stackLayout;horizontal=1;startSize=30;horizontalStack=0;resizeParent=1;resizeParentMax=0;resizeLast=0;collapsible=1;marginBottom=0;whiteSpace=wrap;html=1;fillColor=#dae8fc;strokeColor=#6c8ebf;" parent="1" vertex="1">
          <mxGeometry x="630" y="-90" width="170" height="120" as="geometry" />
        </mxCell>
        <mxCell id="Uk9GfLsoAb0SeuHJn7hZ-17" value="temperature sensor" style="text;strokeColor=#6c8ebf;fillColor=#dae8fc;align=left;verticalAlign=middle;spacingLeft=4;spacingRight=4;overflow=hidden;points=[[0,0.5],[1,0.5]];portConstraint=eastwest;rotatable=0;whiteSpace=wrap;html=1;" parent="Uk9GfLsoAb0SeuHJn7hZ-16" vertex="1">
          <mxGeometry y="30" width="170" height="30" as="geometry" />
        </mxCell>
        <mxCell id="Uk9GfLsoAb0SeuHJn7hZ-18" value="mpu6050, magnetometer, gyroscope" style="text;strokeColor=#6c8ebf;fillColor=#dae8fc;align=left;verticalAlign=middle;spacingLeft=4;spacingRight=4;overflow=hidden;points=[[0,0.5],[1,0.5]];portConstraint=eastwest;rotatable=0;whiteSpace=wrap;html=1;" parent="Uk9GfLsoAb0SeuHJn7hZ-16" vertex="1">
          <mxGeometry y="60" width="170" height="30" as="geometry" />
        </mxCell>
        <mxCell id="Uk9GfLsoAb0SeuHJn7hZ-19" value="sun(UV) sensor" style="text;strokeColor=#6c8ebf;fillColor=#dae8fc;align=left;verticalAlign=middle;spacingLeft=4;spacingRight=4;overflow=hidden;points=[[0,0.5],[1,0.5]];portConstraint=eastwest;rotatable=0;whiteSpace=wrap;html=1;" parent="Uk9GfLsoAb0SeuHJn7hZ-16" vertex="1">
          <mxGeometry y="90" width="170" height="30" as="geometry" />
        </mxCell>
        <mxCell id="Uk9GfLsoAb0SeuHJn7hZ-20" value="&lt;b&gt;Communication and ground station&lt;/b&gt;" style="swimlane;fontStyle=0;childLayout=stackLayout;horizontal=1;startSize=30;horizontalStack=0;resizeParent=1;resizeParentMax=0;resizeLast=0;collapsible=1;marginBottom=0;whiteSpace=wrap;html=1;fillColor=#dae8fc;strokeColor=#6c8ebf;" parent="1" vertex="1">
          <mxGeometry x="630" y="290" width="170" height="120" as="geometry" />
        </mxCell>
        <mxCell id="Uk9GfLsoAb0SeuHJn7hZ-21" value="antenna" style="text;strokeColor=#6c8ebf;fillColor=#dae8fc;align=left;verticalAlign=middle;spacingLeft=4;spacingRight=4;overflow=hidden;points=[[0,0.5],[1,0.5]];portConstraint=eastwest;rotatable=0;whiteSpace=wrap;html=1;" parent="Uk9GfLsoAb0SeuHJn7hZ-20" vertex="1">
          <mxGeometry y="30" width="170" height="30" as="geometry" />
        </mxCell>
        <mxCell id="Uk9GfLsoAb0SeuHJn7hZ-22" value="transceiver modules" style="text;strokeColor=#6c8ebf;fillColor=#dae8fc;align=left;verticalAlign=middle;spacingLeft=4;spacingRight=4;overflow=hidden;points=[[0,0.5],[1,0.5]];portConstraint=eastwest;rotatable=0;whiteSpace=wrap;html=1;" parent="Uk9GfLsoAb0SeuHJn7hZ-20" vertex="1">
          <mxGeometry y="60" width="170" height="30" as="geometry" />
        </mxCell>
        <mxCell id="Uk9GfLsoAb0SeuHJn7hZ-23" value="Item 3" style="text;strokeColor=#6c8ebf;fillColor=#dae8fc;align=left;verticalAlign=middle;spacingLeft=4;spacingRight=4;overflow=hidden;points=[[0,0.5],[1,0.5]];portConstraint=eastwest;rotatable=0;whiteSpace=wrap;html=1;" parent="Uk9GfLsoAb0SeuHJn7hZ-20" vertex="1">
          <mxGeometry y="90" width="170" height="30" as="geometry" />
        </mxCell>
        <mxCell id="Uk9GfLsoAb0SeuHJn7hZ-24" value="&lt;b&gt;Structure and thermal&lt;/b&gt;" style="swimlane;fontStyle=0;childLayout=stackLayout;horizontal=1;startSize=30;horizontalStack=0;resizeParent=1;resizeParentMax=0;resizeLast=0;collapsible=1;marginBottom=0;whiteSpace=wrap;html=1;fillColor=#dae8fc;strokeColor=#6c8ebf;" parent="1" vertex="1">
          <mxGeometry x="630" y="480" width="170" height="90" as="geometry" />
        </mxCell>
        <mxCell id="Uk9GfLsoAb0SeuHJn7hZ-25" value="frame and casing&amp;nbsp;" style="text;strokeColor=#6c8ebf;fillColor=#dae8fc;align=left;verticalAlign=middle;spacingLeft=4;spacingRight=4;overflow=hidden;points=[[0,0.5],[1,0.5]];portConstraint=eastwest;rotatable=0;whiteSpace=wrap;html=1;" parent="Uk9GfLsoAb0SeuHJn7hZ-24" vertex="1">
          <mxGeometry y="30" width="170" height="30" as="geometry" />
        </mxCell>
        <mxCell id="Uk9GfLsoAb0SeuHJn7hZ-26" value="thermal subsystem" style="text;strokeColor=#6c8ebf;fillColor=#dae8fc;align=left;verticalAlign=middle;spacingLeft=4;spacingRight=4;overflow=hidden;points=[[0,0.5],[1,0.5]];portConstraint=eastwest;rotatable=0;whiteSpace=wrap;html=1;" parent="Uk9GfLsoAb0SeuHJn7hZ-24" vertex="1">
          <mxGeometry y="60" width="170" height="30" as="geometry" />
        </mxCell>
        <mxCell id="Uk9GfLsoAb0SeuHJn7hZ-29" value="&lt;b&gt;Mission design&lt;/b&gt;" style="swimlane;fontStyle=0;childLayout=stackLayout;horizontal=1;startSize=30;horizontalStack=0;resizeParent=1;resizeParentMax=0;resizeLast=0;collapsible=1;marginBottom=0;whiteSpace=wrap;html=1;dashed=1;fillColor=#f8cecc;strokeColor=#b85450;" parent="1" vertex="1">
          <mxGeometry x="360" y="630" width="170" height="60" as="geometry" />
        </mxCell>
        <mxCell id="Uk9GfLsoAb0SeuHJn7hZ-30" value="capture monochrome images" style="text;strokeColor=#b85450;fillColor=#f8cecc;align=left;verticalAlign=middle;spacingLeft=4;spacingRight=4;overflow=hidden;points=[[0,0.5],[1,0.5]];portConstraint=eastwest;rotatable=0;whiteSpace=wrap;html=1;dashed=1;" parent="Uk9GfLsoAb0SeuHJn7hZ-29" vertex="1">
          <mxGeometry y="30" width="170" height="30" as="geometry" />
        </mxCell>
        <mxCell id="Uk9GfLsoAb0SeuHJn7hZ-33" value="battery charging and charge controller" style="text;strokeColor=#6c8ebf;fillColor=#dae8fc;align=left;verticalAlign=middle;spacingLeft=4;spacingRight=4;overflow=hidden;points=[[0,0.5],[1,0.5]];portConstraint=eastwest;rotatable=0;whiteSpace=wrap;html=1;rounded=0;" parent="1" vertex="1">
          <mxGeometry x="20" y="260" width="170" height="30" as="geometry" />
        </mxCell>
        <mxCell id="Uk9GfLsoAb0SeuHJn7hZ-34" value="diagnostics" style="text;strokeColor=#6c8ebf;fillColor=#dae8fc;align=left;verticalAlign=middle;spacingLeft=4;spacingRight=4;overflow=hidden;points=[[0,0.5],[1,0.5]];portConstraint=eastwest;rotatable=0;whiteSpace=wrap;html=1;" parent="1" vertex="1">
          <mxGeometry x="20" y="290" width="170" height="30" as="geometry" />
        </mxCell>
        <mxCell id="Uk9GfLsoAb0SeuHJn7hZ-35" value="boost-converters" style="text;strokeColor=#6c8ebf;fillColor=#dae8fc;align=left;verticalAlign=middle;spacingLeft=4;spacingRight=4;overflow=hidden;points=[[0,0.5],[1,0.5]];portConstraint=eastwest;rotatable=0;whiteSpace=wrap;html=1;" parent="1" vertex="1">
          <mxGeometry x="20" y="320" width="170" height="30" as="geometry" />
        </mxCell>
        <mxCell id="Uk9GfLsoAb0SeuHJn7hZ-36" value="release-detection switch" style="text;strokeColor=#6c8ebf;fillColor=#dae8fc;align=left;verticalAlign=middle;spacingLeft=4;spacingRight=4;overflow=hidden;points=[[0,0.5],[1,0.5]];portConstraint=eastwest;rotatable=0;whiteSpace=wrap;html=1;" parent="1" vertex="1">
          <mxGeometry x="20" y="350" width="170" height="30" as="geometry" />
        </mxCell>
        <mxCell id="Uk9GfLsoAb0SeuHJn7hZ-37" value="remove before flight(RBF)" style="text;strokeColor=#6c8ebf;fillColor=#dae8fc;align=left;verticalAlign=middle;spacingLeft=4;spacingRight=4;overflow=hidden;points=[[0,0.5],[1,0.5]];portConstraint=eastwest;rotatable=0;whiteSpace=wrap;html=1;" parent="1" vertex="1">
          <mxGeometry x="20" y="380" width="170" height="30" as="geometry" />
        </mxCell>
        <mxCell id="Uk9GfLsoAb0SeuHJn7hZ-38" value="magnetorquers" style="text;strokeColor=#6c8ebf;fillColor=#dae8fc;align=left;verticalAlign=middle;spacingLeft=4;spacingRight=4;overflow=hidden;points=[[0,0.5],[1,0.5]];portConstraint=eastwest;rotatable=0;whiteSpace=wrap;html=1;" parent="1" vertex="1">
          <mxGeometry x="630" y="30" width="170" height="30" as="geometry" />
        </mxCell>
        <mxCell id="Uk9GfLsoAb0SeuHJn7hZ-39" value="GPS sensors" style="text;strokeColor=#6c8ebf;fillColor=#dae8fc;align=left;verticalAlign=middle;spacingLeft=4;spacingRight=4;overflow=hidden;points=[[0,0.5],[1,0.5]];portConstraint=eastwest;rotatable=0;whiteSpace=wrap;html=1;" parent="1" vertex="1">
          <mxGeometry x="630" y="60" width="170" height="30" as="geometry" />
        </mxCell>
        <mxCell id="Uk9GfLsoAb0SeuHJn7hZ-40" value="ADCs" style="text;strokeColor=#6c8ebf;fillColor=#dae8fc;align=left;verticalAlign=middle;spacingLeft=4;spacingRight=4;overflow=hidden;points=[[0,0.5],[1,0.5]];portConstraint=eastwest;rotatable=0;whiteSpace=wrap;html=1;" parent="1" vertex="1">
          <mxGeometry x="630" y="90" width="170" height="30" as="geometry" />
        </mxCell>
        <mxCell id="Uk9GfLsoAb0SeuHJn7hZ-41" value="Op-amps" style="text;strokeColor=#6c8ebf;fillColor=#dae8fc;align=left;verticalAlign=middle;spacingLeft=4;spacingRight=4;overflow=hidden;points=[[0,0.5],[1,0.5]];portConstraint=eastwest;rotatable=0;whiteSpace=wrap;html=1;" parent="1" vertex="1">
          <mxGeometry x="630" y="120" width="170" height="30" as="geometry" />
        </mxCell>
        <mxCell id="Uk9GfLsoAb0SeuHJn7hZ-43" value="subsytem checks" style="text;strokeColor=#6c8ebf;fillColor=#dae8fc;align=left;verticalAlign=middle;spacingLeft=4;spacingRight=4;overflow=hidden;points=[[0,0.5],[1,0.5]];portConstraint=eastwest;rotatable=0;whiteSpace=wrap;html=1;" parent="1" vertex="1">
          <mxGeometry x="20" y="-10" width="170" height="30" as="geometry" />
        </mxCell>
        <mxCell id="Uk9GfLsoAb0SeuHJn7hZ-44" value="house-keeping tasks&amp;nbsp;" style="text;strokeColor=#6c8ebf;fillColor=#dae8fc;align=left;verticalAlign=middle;spacingLeft=4;spacingRight=4;overflow=hidden;points=[[0,0.5],[1,0.5]];portConstraint=eastwest;rotatable=0;whiteSpace=wrap;html=1;" parent="1" vertex="1">
          <mxGeometry x="20" y="20" width="170" height="30" as="geometry" />
        </mxCell>
        <mxCell id="Uk9GfLsoAb0SeuHJn7hZ-45" value="command processing" style="text;strokeColor=#6c8ebf;fillColor=#dae8fc;align=left;verticalAlign=middle;spacingLeft=4;spacingRight=4;overflow=hidden;points=[[0,0.5],[1,0.5]];portConstraint=eastwest;rotatable=0;whiteSpace=wrap;html=1;" parent="1" vertex="1">
          <mxGeometry x="20" y="50" width="170" height="30" as="geometry" />
        </mxCell>
        <mxCell id="Uk9GfLsoAb0SeuHJn7hZ-50" style="edgeStyle=orthogonalEdgeStyle;rounded=0;orthogonalLoop=1;jettySize=auto;html=1;" parent="1" source="Uk9GfLsoAb0SeuHJn7hZ-7" target="Uk9GfLsoAb0SeuHJn7hZ-21" edge="1">
          <mxGeometry relative="1" as="geometry" />
        </mxCell>
        <mxCell id="Uk9GfLsoAb0SeuHJn7hZ-51" style="edgeStyle=orthogonalEdgeStyle;rounded=0;orthogonalLoop=1;jettySize=auto;html=1;exitX=0.803;exitY=1.007;exitDx=0;exitDy=0;exitPerimeter=0;" parent="1" source="Uk9GfLsoAb0SeuHJn7hZ-7" target="Uk9GfLsoAb0SeuHJn7hZ-25" edge="1">
          <mxGeometry relative="1" as="geometry" />
        </mxCell>
        <mxCell id="Uk9GfLsoAb0SeuHJn7hZ-52" value="Project Shadow Flight Subsystems" style="text;strokeColor=none;fillColor=none;html=1;fontSize=24;fontStyle=1;verticalAlign=middle;align=center;" parent="1" vertex="1">
          <mxGeometry x="375" y="-180" width="100" height="40" as="geometry" />
        </mxCell>
      </root>
    </mxGraphModel>
  </diagram>
</mxfile>
